<svg xmlns="http://www.w3.org/2000/svg" version="1.1" xmlns:xlink="http://www.w3.org/1999/xlink" xmlns:svgjs="http://svgjs.dev/svgjs" width="2000" height="555" viewBox="0 0 2000 555"><g transform="matrix(1,0,0,1,-1.2121212121212466,-0.3247106043373833)"><svg viewBox="0 0 396 110" data-background-color="#8abe53" preserveAspectRatio="xMidYMid meet" height="555" width="2000" xmlns="http://www.w3.org/2000/svg" xmlns:xlink="http://www.w3.org/1999/xlink"><g id="tight-bounds" transform="matrix(1,0,0,1,0.2400000000000091,0.06435705671552228)"><svg viewBox="0 0 395.52 109.87128588656897" height="109.87128588656897" width="395.52"><g><svg viewBox="0 0 395.52000000000004 109.87128588656898" height="109.87128588656897" width="395.52"><g><svg viewBox="0 0 395.52000000000004 109.87128588656898" height="109.87128588656898" width="395.52000000000004"><g id="textblocktransform"><svg viewBox="0 0 395.52000000000004 109.87128588656898" height="109.87128588656898" width="395.52000000000004" id="textblock"><g><rect width="395.52000000000004" height="85.93960413261371" fill="none" stroke-width="9.018103199999999" stroke="#ffffff" data-fill-palette-color="none" data-stroke-palette-color="tertiary"></rect><rect width="395.52000000000004" height="23.931681753955278" y="85.93960413261371" fill="#ffffff" data-fill-palette-color="tertiary"></rect></g><g><svg viewBox="0 0 395.52000000000004 85.93960413261371" height="85.93960413261371" width="395.52000000000004"><g transform="matrix(1,0,0,1,23.607599999999998,23.607599999999994)"><svg width="348.30480000000006" viewBox="2.9000000953674316 -35.650001525878906 324.2300109863281 36.05000305175781" height="38.72440413261372" data-palette-color="#ffffff"><path d="M19.6 0.4Q14.5 0.4 10.73-1.8 6.95-4 4.93-8.08 2.9-12.15 2.9-17.65L2.9-17.65Q2.9-23.15 4.93-27.23 6.95-31.3 10.73-33.48 14.5-35.65 19.6-35.65L19.6-35.65Q23.2-35.65 26.3-34.52 29.4-33.4 31.55-31.3L31.55-31.3 29.75-27.5Q27.3-29.55 24.88-30.45 22.45-31.35 19.65-31.35L19.65-31.35Q14.15-31.35 11.18-27.8 8.2-24.25 8.2-17.65L8.2-17.65Q8.2-11.05 11.18-7.48 14.15-3.9 19.65-3.9L19.65-3.9Q22.45-3.9 24.88-4.8 27.3-5.7 29.75-7.75L29.75-7.75 31.55-3.95Q29.4-1.85 26.3-0.73 23.2 0.4 19.6 0.4L19.6 0.4ZM69.3 0L64.15 0 60.4-8.7 42.55-8.7 38.8 0 33.6 0 49.3-35.25 53.6-35.25 69.3 0ZM51.5-29.5L44.3-12.8 58.65-12.8 51.5-29.5ZM96.45-11.2L102.5 0 96.8 0 90.8-11.3Q89.8-13.1 88.42-13.83 87.05-14.55 84.8-14.55L84.8-14.55 79-14.55 79 0 73.9 0 73.9-35.25 88.9-35.25Q94.75-35.25 97.82-32.65 100.9-30.05 100.9-25.05L100.9-25.05Q100.9-21 98.62-18.4 96.35-15.8 92.15-15.1L92.15-15.1Q94.75-14.3 96.45-11.2L96.45-11.2ZM78.95-18.7L88.3-18.7Q92.2-18.7 94.07-20.23 95.95-21.75 95.95-24.95L95.95-24.95Q95.95-28.15 94.1-29.63 92.25-31.1 88.3-31.1L88.3-31.1 78.95-31.1 78.95-18.7ZM132.49-8.6L132.49-35.25 137.34-35.25 137.34 0 133.39 0 113.24-26.6 113.24 0 108.39 0 108.39-35.25 112.29-35.25 132.49-8.6ZM150.69 0L145.54 0 145.54-35.25 150.69-35.25 150.69 0ZM172.39-6.5L184.79-35.25 190.04-35.25 174.49 0 170.14 0 154.64-35.25 159.99-35.25 172.39-6.5ZM208.24 0.4Q203.24 0.4 199.56-1.8 195.89-4 193.89-8.05 191.89-12.1 191.89-17.6L191.89-17.6Q191.89-23.15 193.86-27.23 195.84-31.3 199.54-33.48 203.24-35.65 208.24-35.65L208.24-35.65Q213.29-35.65 216.99-33.48 220.69-31.3 222.66-27.23 224.64-23.15 224.64-17.65L224.64-17.65Q224.64-12.15 222.66-8.08 220.69-4 216.99-1.8 213.29 0.4 208.24 0.4L208.24 0.4ZM208.24-3.8Q213.54-3.8 216.49-7.4 219.44-11 219.44-17.65L219.44-17.65Q219.44-24.3 216.51-27.88 213.59-31.45 208.24-31.45L208.24-31.45Q202.99-31.45 200.06-27.88 197.14-24.3 197.14-17.65L197.14-17.65Q197.14-11 200.06-7.4 202.99-3.8 208.24-3.8L208.24-3.8ZM254.18-11.2L260.23 0 254.53 0 248.53-11.3Q247.53-13.1 246.16-13.83 244.78-14.55 242.53-14.55L242.53-14.55 236.73-14.55 236.73 0 231.63 0 231.63-35.25 246.63-35.25Q252.48-35.25 255.56-32.65 258.63-30.05 258.63-25.05L258.63-25.05Q258.63-21 256.36-18.4 254.08-15.8 249.88-15.1L249.88-15.1Q252.48-14.3 254.18-11.2L254.18-11.2ZM236.68-18.7L246.03-18.7Q249.93-18.7 251.81-20.23 253.68-21.75 253.68-24.95L253.68-24.95Q253.68-28.15 251.83-29.63 249.98-31.1 246.03-31.1L246.03-31.1 236.68-31.1 236.68-18.7ZM297.88 0L292.73 0 288.98-8.7 271.13-8.7 267.38 0 262.18 0 277.88-35.25 282.18-35.25 297.88 0ZM280.08-29.5L272.88-12.8 287.23-12.8 280.08-29.5ZM313.68 0.4Q309.58 0.4 306.15-0.7 302.73-1.8 300.28-3.95L300.28-3.95 302.13-7.75Q304.73-5.65 307.5-4.73 310.28-3.8 313.73-3.8L313.73-3.8Q317.68-3.8 319.83-5.28 321.98-6.75 321.98-9.45L321.98-9.45Q321.98-11.75 319.98-12.88 317.98-14 313.58-15L313.58-15Q309.38-15.9 306.68-17.05 303.98-18.2 302.45-20.18 300.93-22.15 300.93-25.2L300.93-25.2Q300.93-28.3 302.55-30.65 304.18-33 307.18-34.33 310.18-35.65 314.13-35.65L314.13-35.65Q317.83-35.65 321.1-34.52 324.38-33.4 326.48-31.3L326.48-31.3 324.68-27.5Q322.23-29.5 319.65-30.48 317.08-31.45 314.18-31.45L314.18-31.45Q310.38-31.45 308.2-29.88 306.03-28.3 306.03-25.5L306.03-25.5Q306.03-23.1 307.93-21.88 309.83-20.65 314.03-19.65L314.03-19.65Q318.43-18.65 321.15-17.57 323.88-16.5 325.5-14.63 327.13-12.75 327.13-9.75L327.13-9.75Q327.13-6.7 325.5-4.4 323.88-2.1 320.85-0.85 317.83 0.4 313.68 0.4L313.68 0.4Z" opacity="1" transform="matrix(1,0,0,1,0,0)" fill="#ffffff" class="undefined-text-0" data-fill-palette-color="primary" id="text-0"></path></svg></g></svg></g></svg></g></svg></g></svg></g><defs></defs></svg><rect width="395.52" height="109.87128588656897" fill="none" stroke="none" visibility="hidden"></rect></g></svg></g></svg>